<svg xmlns="http://www.w3.org/2000/svg" width="64" height="64" viewBox="0 0 64 64" fill="none">
  <defs>
    <linearGradient id="f-bg" x1="10" y1="8" x2="54" y2="58" gradientUnits="userSpaceOnUse">
      <stop stop-color="#27272a"/>
      <stop offset="1" stop-color="#09090b"/>
    </linearGradient>
    <linearGradient id="f-rim" x1="32" y1="2" x2="32" y2="62" gradientUnits="userSpaceOnUse">
      <stop stop-color="rgba(255,255,255,0.14)"/>
      <stop offset="0.5" stop-color="rgba(255,255,255,0.05)"/>
      <stop offset="1" stop-color="rgba(255,255,255,0.1)"/>
    </linearGradient>
    <radialGradient id="f-hot" cx="0" cy="0" r="1" gradientUnits="userSpaceOnUse" gradientTransform="translate(32 30) rotate(90) scale(10)">
      <stop stop-color="#fecaca" stop-opacity="0.55"/>
      <stop offset="1" stop-color="#dc2626" stop-opacity="0"/>
    </radialGradient>
    <filter id="f-soft" x="-40%" y="-40%" width="180%" height="180%" color-interpolation-filters="sRGB">
      <feGaussianBlur stdDeviation="0.8" result="b"/>
      <feMerge>
        <feMergeNode in="b"/>
        <feMergeNode in="SourceGraphic"/>
      </feMerge>
    </filter>
  </defs>
  <rect x="1.5" y="1.5" width="61" height="61" rx="17" fill="url(#f-bg)" stroke="url(#f-rim)" stroke-width="1"/>
  <g opacity="0.11" stroke="#fafafa" stroke-width="0.45">
    <line x1="8" y1="10" x2="8" y2="54"/><line x1="14" y1="10" x2="14" y2="54"/><line x1="20" y1="10" x2="20" y2="54"/><line x1="26" y1="10" x2="26" y2="54"/><line x1="32" y1="10" x2="32" y2="54"/><line x1="38" y1="10" x2="38" y2="54"/><line x1="44" y1="10" x2="44" y2="54"/><line x1="50" y1="10" x2="50" y2="54"/><line x1="56" y1="10" x2="56" y2="54"/>
    <line x1="10" y1="8" x2="54" y2="8"/><line x1="10" y1="14" x2="54" y2="14"/><line x1="10" y1="20" x2="54" y2="20"/><line x1="10" y1="26" x2="54" y2="26"/><line x1="10" y1="32" x2="54" y2="32"/><line x1="10" y1="38" x2="54" y2="38"/><line x1="10" y1="44" x2="54" y2="44"/><line x1="10" y1="50" x2="54" y2="50"/><line x1="10" y1="56" x2="54" y2="56"/>
  </g>
  <path d="M 21 19.5 L 43 19.5 L 51.5 47 L 12.5 47 Z" stroke="rgba(244,244,245,0.22)" stroke-width="1.15" stroke-linejoin="round" fill="rgba(0,0,0,0.2)"/>
  <line x1="32" y1="21" x2="32" y2="46.5" stroke="#dc2626" stroke-width="1.35" stroke-linecap="round" opacity="0.92"/>
  <path d="M 14 14 L 18 14 M 46 14 L 50 14 M 14 50 L 18 50 M 46 50 L 50 50" stroke="#dc2626" stroke-width="1.1" stroke-linecap="round" opacity="0.45"/>
  <circle cx="32" cy="30" r="10" fill="url(#f-hot)" opacity="0.85"/>
  <circle cx="23.5" cy="37" r="3.6" fill="#52525b" stroke="rgba(0,0,0,0.35)" stroke-width="0.35"/>
  <circle cx="32" cy="28.5" r="4.25" fill="#dc2626" stroke="#450a0a" stroke-width="0.4" filter="url(#f-soft)"/>
  <circle cx="40.5" cy="37" r="3.6" fill="#a1a1aa" stroke="rgba(0,0,0,0.35)" stroke-width="0.35"/>
  <path d="M 32 8.5 L 32 12.5 M 8.5 32 L 12.5 32 M 51.5 32 L 55.5 32 M 32 51.5 L 32 55.5" stroke="rgba(220,38,38,0.35)" stroke-width="0.9" stroke-linecap="round"/>
</svg>
